<svg xmlns="http://www.w3.org/2000/svg" viewBox="0 0 512 512">
  <defs>
    <linearGradient id="bg" x1="0" y1="0" x2="1" y2="1">
      <stop offset="0%" stop-color="#0C2F5A"/>
      <stop offset="55%" stop-color="#1B6CA8"/>
      <stop offset="100%" stop-color="#38BDF8"/>
    </linearGradient>
  </defs>
  <rect width="512" height="512" fill="url(#bg)"/>
  <g transform="translate(256,210)" fill="white">
    <path d="M0,-80 C4,-20 20,-4 80,0 C20,4 4,20 0,80 C-4,20 -20,4 -80,0 C-20,-4 -4,-20 0,-80Z"/>
    <path transform="translate(76,-76) scale(0.30)" d="M0,-80 C4,-20 20,-4 80,0 C20,4 4,20 0,80 C-4,20 -20,4 -80,0 C-20,-4 -4,-20 0,-80Z"/>
    <path transform="translate(-65,72) scale(0.20)" d="M0,-80 C4,-20 20,-4 80,0 C20,4 4,20 0,80 C-4,20 -20,4 -80,0 C-20,-4 -4,-20 0,-80Z"/>
  </g>
  <text x="256" y="404" font-family="Georgia,Times New Roman,serif" font-size="64" fill="white" fill-opacity="0.90" text-anchor="middle" font-weight="bold" letter-spacing="3">girl math</text>
</svg>
