<svg xmlns="http://www.w3.org/2000/svg" viewBox="0 0 512 512">
  <defs>
    <linearGradient id="bg" x1="0" y1="0" x2="1" y2="1">
      <stop offset="0%" stop-color="#0C2F5A"/>
      <stop offset="55%" stop-color="#1B6CA8"/>
      <stop offset="100%" stop-color="#38BDF8"/>
    </linearGradient>
  </defs>
  <rect width="512" height="512" rx="96" fill="url(#bg)"/>
  <g transform="translate(256,210)" fill="white">
    <path d="M0,-90 C4,-22 22,-4 90,0 C22,4 4,22 0,90 C-4,22 -22,4 -90,0 C-22,-4 -4,-22 0,-90Z"/>
    <path transform="translate(88,-88) scale(0.32)" d="M0,-90 C4,-22 22,-4 90,0 C22,4 4,22 0,90 C-4,22 -22,4 -90,0 C-22,-4 -4,-22 0,-90Z"/>
    <path transform="translate(-75,82) scale(0.22)" d="M0,-90 C4,-22 22,-4 90,0 C22,4 4,22 0,90 C-4,22 -22,4 -90,0 C-22,-4 -4,-22 0,-90Z"/>
    <path transform="translate(80,72) scale(0.18)" d="M0,-90 C4,-22 22,-4 90,0 C22,4 4,22 0,90 C-4,22 -22,4 -90,0 C-22,-4 -4,-22 0,-90Z"/>
  </g>
  <text x="256" y="408" font-family="Georgia,Times New Roman,serif" font-size="68" fill="white" fill-opacity="0.90" text-anchor="middle" font-weight="bold" letter-spacing="3">girl math</text>
</svg>
